<!DOCTYPE svg PUBLIC "-//W3C//DTD SVG 1.1//EN" "http://www.w3.org/Graphics/SVG/1.1/DTD/svg11.dtd">
<!-- Uploaded to: SVG Repo, www.svgrepo.com, Transformed by: SVG Repo Mixer Tools -->
<svg width="800px" height="800px" viewBox="0 0 1024 1024" class="icon" version="1.1" xmlns="http://www.w3.org/2000/svg" fill="#000000">
<g id="SVGRepo_bgCarrier" stroke-width="0"/>
<g id="SVGRepo_tracerCarrier" stroke-linecap="round" stroke-linejoin="round"/>
<g id="SVGRepo_iconCarrier">
<path d="M342 167.6c2.2-1.1 4.4-2.2 6.6-3.2-2.2 1-4.4 2.1-6.6 3.2zM351.1 163.2c1.8-0.8 3.7-1.7 5.5-2.5-1.8 0.8-3.6 1.7-5.5 2.5zM255.1 797.4c-0.6-0.6-1.2-1.1-1.8-1.7 0.6 0.6 1.2 1.1 1.8 1.7zM362.5 158.2c-0.9 0.4-1.7 0.8-2.6 1.1 45.1-19.5 94.6-30.5 146.7-31.2-49.9 0.6-98.4 10.7-144.1 30.1zM234.1 777l-0.5-0.5 0.5 0.5zM247.5 790.4l-0.5-0.5 0.5 0.5zM265.4 217.6c1.9-1.6 3.8-3.1 5.7-4.7-1.9 1.6-3.8 3.2-5.7 4.7zM507.1 128h4.9-4.9zM271.5 212.6c21.4-17.2 44.6-32.1 69.3-44.4-24.6 12.2-47.8 27.1-69.3 44.4zM512 896h-4.9 4.9zM356.6 863.3c-1.8-0.8-3.7-1.6-5.5-2.5 1.9 0.8 3.7 1.7 5.5 2.5zM259.3 222.8c1.2-1.1 2.4-2.1 3.7-3.2-1.2 1.1-2.4 2.2-3.7 3.2zM362.5 865.8c45.7 19.3 94.1 29.4 144.1 30.1-52.1-0.7-101.6-11.8-146.7-31.2 0.9 0.4 1.8 0.8 2.6 1.1zM516.9 896H512h4.9zM661.5 865.8c0.9-0.4 1.7-0.8 2.6-1.1-45.1 19.5-94.6 30.5-146.7 31.2 49.9-0.6 98.4-10.7 144.1-30.1zM271.1 811.1c-1.9-1.5-3.8-3.1-5.7-4.7 1.9 1.5 3.8 3.1 5.7 4.7zM348.6 859.6c-2.2-1-4.4-2.1-6.6-3.2 2.2 1.1 4.4 2.2 6.6 3.2zM512 128h4.9-4.9zM340.9 855.9c-24.8-12.3-48-27.3-69.3-44.4 21.4 17.2 44.6 32.1 69.3 44.4zM263 804.3c-1.2-1-2.5-2.1-3.7-3.2 1.3 1.1 2.5 2.2 3.7 3.2zM158.2 362.5c-19.3 45.7-29.4 94.1-30.1 144.1 0.7-52.1 11.8-101.6 31.2-146.7-0.4 0.9-0.8 1.8-1.1 2.6zM160.7 356.7c0.8-1.8 1.7-3.7 2.5-5.5-0.8 1.8-1.7 3.6-2.5 5.5zM168.1 340.9c12.3-24.8 27.3-48 44.4-69.3-17.2 21.4-32.1 44.6-44.4 69.3zM164.4 348.6c1-2.2 2.1-4.4 3.2-6.6-1.1 2.2-2.2 4.4-3.2 6.6zM212.6 752.5c-17.2-21.4-32.1-44.6-44.4-69.3 12.2 24.6 27.1 47.8 44.4 69.3zM158.2 661.5c0.4 0.9 0.8 1.7 1.1 2.6-19.5-45.1-30.5-94.6-31.2-146.7 0.6 49.9 10.7 98.4 30.1 144.1zM167.6 682c-1.1-2.2-2.2-4.4-3.2-6.6 1 2.2 2.1 4.4 3.2 6.6zM128 516.9V512v4.9zM128 512v-4.9 4.9zM219.7 263c1-1.2 2.1-2.5 3.2-3.7-1.1 1.3-2.2 2.5-3.2 3.7zM247 234.1l0.5-0.5-0.5 0.5zM233.6 247.5l0.5-0.5-0.5 0.5zM226.6 255.1c0.6-0.6 1.1-1.2 1.7-1.8-0.6 0.6-1.1 1.2-1.7 1.8zM228.3 770.8c-0.6-0.6-1.1-1.2-1.7-1.8 0.6 0.5 1.1 1.1 1.7 1.8zM217.6 758.6c-1.6-1.9-3.1-3.8-4.7-5.7 1.6 1.9 3.2 3.8 4.7 5.7zM212.9 271.1c1.5-1.9 3.1-3.8 4.7-5.7-1.5 1.9-3.1 3.8-4.7 5.7zM253.2 228.3c0.6-0.6 1.2-1.1 1.8-1.7-0.5 0.6-1.1 1.1-1.8 1.7zM222.8 764.7c-1.1-1.2-2.1-2.4-3.2-3.7 1.1 1.2 2.2 2.4 3.2 3.7zM855.9 683.1c-12.3 24.8-27.3 48-44.4 69.3 17.2-21.4 32.1-44.6 44.4-69.3zM863.3 667.4c-0.8 1.8-1.6 3.7-2.5 5.5 0.8-1.9 1.7-3.7 2.5-5.5zM770.8 795.7c-0.6 0.6-1.2 1.1-1.8 1.7 0.5-0.6 1.1-1.1 1.8-1.7zM790.4 776.5l-0.5 0.5 0.5-0.5zM777 789.9l-0.5 0.5 0.5-0.5zM764.7 801.2c-1.2 1.1-2.4 2.1-3.7 3.2 1.2-1.1 2.4-2.2 3.7-3.2zM896 506.7c-0.2-12.4-0.9-24.8-2.3-37 1.3 12.2 2.1 24.5 2.3 37zM859.6 675.4c-1 2.2-2.1 4.4-3.2 6.6 1.1-2.2 2.2-4.4 3.2-6.6zM554.4 130.3c-12.3-1.3-24.6-2.1-37.1-2.3 12.5 0.2 24.9 1 37.1 2.3zM163.2 672.9c-0.8-1.8-1.7-3.7-2.5-5.5 0.8 1.8 1.7 3.6 2.5 5.5zM811.1 752.9c-1.5 1.9-3.1 3.8-4.7 5.7 1.5-1.9 3.1-3.8 4.7-5.7zM797.4 768.9c-0.6 0.6-1.1 1.2-1.7 1.8 0.6-0.6 1.1-1.2 1.7-1.8zM758.6 806.4c-1.9 1.6-3.8 3.1-5.7 4.7 1.9-1.6 3.8-3.2 5.7-4.7zM804.3 761c-1 1.2-2.1 2.5-3.2 3.7 1.1-1.3 2.2-2.5 3.2-3.7zM896 507.1v0zM682 856.4c-2.2 1.1-4.4 2.2-6.6 3.2 2.2-1 4.4-2.1 6.6-3.2zM896 512v0zM672.9 860.8c-1.8 0.8-3.7 1.7-5.5 2.5 1.8-0.8 3.6-1.7 5.5-2.5zM752.5 811.4c-21.4 17.2-44.6 32.1-69.3 44.4 24.6-12.2 47.8-27.1 69.3-44.4zM865.8 661.5c19.3-45.7 29.4-94.1 30.1-144.1-0.7 52.1-11.8 101.6-31.2 146.7 0.4-0.9 0.8-1.8 1.1-2.6z" fill="#E28B65"/>
<path d="M702.6 490.9c0.8 6.9 1.2 14 1.2 21.1 0 105.9-85.9 191.8-191.8 191.8S320.2 617.9 320.2 512 406.1 320.2 512 320.2c7.2 0 14.2 0.4 21.2 1.2l21.2-191.1c-12.2-1.3-24.6-2.1-37.1-2.3H506.7c-52.1 0.7-101.6 11.8-146.7 31.2l-3.3 1.5c-1.8 0.8-3.7 1.6-5.5 2.5-0.8 0.4-1.7 0.8-2.5 1.2-2.2 1-4.4 2.1-6.6 3.2-0.4 0.2-0.7 0.4-1.1 0.5-24.8 12.3-48 27.3-69.3 44.4-0.1 0.1-0.3 0.2-0.4 0.3-1.9 1.5-3.8 3.1-5.7 4.7-0.8 0.7-1.6 1.3-2.4 2-1.2 1-2.5 2.1-3.7 3.2-1.4 1.2-2.8 2.5-4.3 3.8-0.6 0.6-1.2 1.1-1.8 1.7-1.9 1.8-3.8 3.5-5.7 5.3l-0.5 0.5c-2.2 2.1-4.4 4.2-6.5 6.4s-4.3 4.3-6.4 6.5l-0.5 0.5c-1.8 1.9-3.6 3.8-5.3 5.7-0.6 0.6-1.1 1.2-1.7 1.8-1.3 1.4-2.5 2.8-3.8 4.3-1.1 1.2-2.1 2.4-3.2 3.7-0.7 0.8-1.4 1.6-2 2.4-1.6 1.9-3.1 3.8-4.7 5.7-0.1 0.1-0.2 0.3-0.4 0.4-17.2 21.4-32.1 44.6-44.4 69.3-0.2 0.4-0.4 0.7-0.5 1.1-1.1 2.2-2.2 4.4-3.2 6.6-0.4 0.8-0.8 1.7-1.2 2.5-0.8 1.8-1.7 3.7-2.5 5.5l-1.5 3.3c-19.5 45.1-30.5 94.6-31.2 146.7V517c0.7 52.1 11.8 101.6 31.2 146.7l1.5 3.3c0.8 1.8 1.6 3.7 2.5 5.5 0.4 0.8 0.8 1.7 1.2 2.5 1 2.2 2.1 4.4 3.2 6.6 0.2 0.4 0.4 0.7 0.5 1.1 12.3 24.7 27.3 48 44.4 69.3 0.1 0.1 0.2 0.3 0.4 0.4 1.5 1.9 3.1 3.8 4.7 5.7 0.7 0.8 1.3 1.6 2 2.4 1 1.2 2.1 2.5 3.2 3.7 1.2 1.4 2.5 2.8 3.8 4.3 0.6 0.6 1.1 1.2 1.7 1.8 1.8 1.9 3.5 3.8 5.3 5.7l0.5 0.5c2.1 2.2 4.2 4.4 6.4 6.5s4.3 4.3 6.5 6.4l0.5 0.5c1.9 1.8 3.8 3.6 5.7 5.3 0.6 0.6 1.2 1.1 1.8 1.7 1.4 1.3 2.8 2.5 4.3 3.8 1.2 1.1 2.4 2.1 3.7 3.2 0.8 0.7 1.6 1.4 2.4 2 1.9 1.6 3.8 3.1 5.7 4.7 0.1 0.1 0.3 0.2 0.4 0.3 21.4 17.2 44.6 32.1 69.3 44.4 0.4 0.2 0.7 0.4 1.1 0.5 2.2 1.1 4.4 2.2 6.6 3.2 0.8 0.4 1.7 0.8 2.5 1.2 1.8 0.8 3.7 1.7 5.5 2.5l3.3 1.5c45.1 19.5 94.6 30.5 146.7 31.2H517.3c52.1-0.7 101.6-11.8 146.7-31.2l3.3-1.5c1.8-0.8 3.7-1.6 5.5-2.5 0.8-0.4 1.7-0.8 2.5-1.2 2.2-1 4.4-2.1 6.6-3.2 0.4-0.2 0.7-0.4 1.1-0.5 24.8-12.3 48-27.3 69.3-44.4 0.1-0.1 0.3-0.2 0.4-0.3 1.9-1.5 3.8-3.1 5.7-4.7 0.8-0.7 1.6-1.3 2.4-2 1.2-1 2.5-2.1 3.7-3.2 1.4-1.2 2.8-2.5 4.3-3.8 0.6-0.6 1.2-1.1 1.8-1.7 1.9-1.8 3.8-3.5 5.7-5.3l0.5-0.5c2.2-2.1 4.4-4.2 6.5-6.4s4.3-4.3 6.4-6.5l0.5-0.5c1.8-1.9 3.6-3.8 5.3-5.7 0.6-0.6 1.1-1.2 1.7-1.8 1.3-1.4 2.5-2.8 3.8-4.3 1.1-1.2 2.1-2.4 3.2-3.7 0.7-0.8 1.4-1.6 2-2.4 1.6-1.9 3.1-3.8 4.7-5.7 0.1-0.1 0.2-0.3 0.3-0.4 17.2-21.4 32.1-44.6 44.4-69.3 0.2-0.4 0.4-0.7 0.5-1.1 1.1-2.2 2.2-4.4 3.2-6.6 0.4-0.8 0.8-1.7 1.2-2.5 0.8-1.8 1.7-3.7 2.5-5.5l1.5-3.3C884 618.6 895 569.1 895.7 517v-0.4-4.9-4.9-0.4c-0.2-12.5-0.9-24.8-2.3-37l-190.8 21.5z" fill="#E28B65"/>
<path d="M893.7 469.7c1.3 12.2 2.1 24.6 2.3 37V517.3c-0.7 50-10.8 98.4-30.1 144.1-0.4 0.9-0.8 1.7-1.1 2.6l-1.5 3.3c-0.8 1.8-1.7 3.7-2.5 5.5-0.4 0.8-0.8 1.7-1.2 2.5-1 2.2-2.1 4.4-3.2 6.6-0.2 0.4-0.4 0.7-0.5 1.1-12.3 24.7-27.2 47.9-44.4 69.3-0.1 0.1-0.2 0.3-0.3 0.4-1.5 1.9-3.1 3.8-4.7 5.7-0.7 0.8-1.3 1.6-2 2.4-1 1.2-2.1 2.5-3.2 3.7-1.2 1.4-2.5 2.8-3.8 4.3-0.6 0.6-1.1 1.2-1.7 1.8-1.8 1.9-3.5 3.8-5.3 5.7l-0.5 0.5c-4.2 4.4-8.5 8.7-12.9 12.9l-0.5 0.5c-1.9 1.8-3.8 3.6-5.7 5.3-0.6 0.6-1.2 1.1-1.8 1.7-1.4 1.3-2.8 2.5-4.3 3.8-1.2 1.1-2.4 2.1-3.7 3.2-0.8 0.7-1.6 1.4-2.4 2-1.9 1.6-3.8 3.1-5.7 4.7-0.1 0.1-0.3 0.2-0.4 0.3-21.5 17.3-44.7 32.2-69.3 44.4-0.4 0.2-0.7 0.4-1.1 0.5-2.2 1.1-4.4 2.2-6.6 3.2-0.8 0.4-1.7 0.8-2.5 1.2-1.8 0.8-3.7 1.7-5.5 2.5l-3.3 1.5c-0.9 0.4-1.7 0.8-2.6 1.1-45.7 19.3-94.1 29.4-144.1 30.1H507c-50-0.7-98.4-10.8-144.1-30.1-0.9-0.4-1.7-0.8-2.6-1.1L357 863c-1.8-0.8-3.7-1.7-5.5-2.5-0.8-0.4-1.7-0.8-2.5-1.2-2.2-1-4.4-2.1-6.6-3.2-0.4-0.2-0.7-0.4-1.1-0.5-24.7-12.3-47.9-27.2-69.3-44.4-0.1-0.1-0.3-0.2-0.4-0.3-1.9-1.5-3.8-3.1-5.7-4.7-0.8-0.7-1.6-1.3-2.4-2-1.2-1-2.5-2.1-3.7-3.2-1.4-1.2-2.8-2.5-4.3-3.8-0.6-0.6-1.2-1.1-1.8-1.7-1.9-1.8-3.8-3.5-5.7-5.3l-0.5-0.5c-4.4-4.2-8.7-8.5-12.9-12.9l-0.5-0.5c-1.8-1.9-3.6-3.8-5.3-5.7-0.6-0.6-1.1-1.2-1.7-1.8-1.3-1.4-2.5-2.8-3.8-4.3-1.1-1.2-2.1-2.4-3.2-3.7-0.7-0.8-1.4-1.6-2-2.4-1.6-1.9-3.1-3.8-4.7-5.7-0.1-0.1-0.2-0.3-0.4-0.4-17.3-21.5-32.2-44.6-44.4-69.3-0.2-0.4-0.4-0.7-0.5-1.1-1.1-2.2-2.2-4.4-3.2-6.6-0.4-0.8-0.8-1.7-1.2-2.5-0.8-1.8-1.7-3.7-2.5-5.5l-1.5-3.3c-0.4-0.9-0.8-1.7-1.1-2.6-19.3-45.7-29.4-94.1-30.1-144.1v-0.4-4.9-4.9-0.4c0.7-50 10.8-98.4 30.1-144.1 0.4-0.9 0.8-1.7 1.1-2.6l1.5-3.3c0.8-1.8 1.7-3.7 2.5-5.5 0.4-0.8 0.8-1.7 1.2-2.5 1-2.2 2.1-4.4 3.2-6.6 0.2-0.4 0.4-0.7 0.5-1.1 12.3-24.7 27.2-47.9 44.4-69.3 0.1-0.1 0.2-0.3 0.4-0.4 1.5-1.9 3.1-3.8 4.7-5.7 0.7-0.8 1.3-1.6 2-2.4 1-1.2 2.1-2.5 3.2-3.7 1.2-1.4 2.5-2.8 3.8-4.3 0.6-0.6 1.1-1.2 1.7-1.8 1.8-1.9 3.5-3.8 5.3-5.7l0.5-0.5c4.2-4.4 8.5-8.7 12.9-12.9l0.5-0.5c1.9-1.8 3.8-3.6 5.7-5.3 0.6-0.6 1.2-1.1 1.8-1.7 1.4-1.3 2.8-2.5 4.3-3.8 1.2-1.1 2.4-2.1 3.7-3.2 0.8-0.7 1.6-1.4 2.4-2 1.9-1.6 3.8-3.1 5.7-4.7 0.1-0.1 0.3-0.2 0.4-0.3 21.5-17.3 44.7-32.2 69.3-44.4 0.4-0.2 0.7-0.4 1.1-0.5 2.2-1.1 4.4-2.2 6.6-3.2 0.8-0.4 1.7-0.8 2.5-1.2 1.8-0.8 3.7-1.7 5.5-2.5l3.3-1.5c0.9-0.4 1.7-0.8 2.6-1.1C408.6 139.1 457 129 507 128.3H517.6c12.5 0.2 24.8 0.9 37.1 2.3l7.1-63.6c-16.6-2.1-33.1-3-49.8-3C264.6 64 64 264.6 64 512s200.6 448 448 448 448-200.6 448-448c0-16.7-0.9-33.2-2.7-49.4l-63.6 7.1z" fill="#f8b091"/>
<path d="M164.4 675.4c-0.4-0.8-0.8-1.7-1.2-2.5 0.4 0.8 0.8 1.6 1.2 2.5zM856.4 682c-0.2 0.4-0.4 0.7-0.5 1.1 0.1-0.3 0.3-0.7 0.5-1.1zM226.6 768.9c-1.3-1.4-2.5-2.8-3.8-4.3 1.3 1.5 2.5 2.9 3.8 4.3zM896 506.7v0zM896 516.9v0zM212.9 752.9c-0.1-0.1-0.2-0.3-0.4-0.4 0.2 0.1 0.3 0.3 0.4 0.4zM168.1 683.1c-0.2-0.4-0.4-0.7-0.5-1.1 0.2 0.4 0.4 0.8 0.5 1.1zM864.7 664l-1.5 3.3c0.6-1.1 1-2.2 1.5-3.3zM860.8 672.9c-0.4 0.8-0.8 1.7-1.2 2.5 0.4-0.9 0.8-1.7 1.2-2.5zM219.7 761c-0.7-0.8-1.4-1.6-2-2.4 0.6 0.8 1.3 1.6 2 2.4zM342 856.4c-0.4-0.2-0.7-0.4-1.1-0.5 0.3 0.1 0.7 0.3 1.1 0.5zM667.4 863.3l-3.3 1.5c1-0.6 2.1-1 3.3-1.5zM683.1 855.9c-0.4 0.2-0.7 0.4-1.1 0.5 0.4-0.2 0.8-0.4 1.1-0.5zM351.1 860.8c-0.8-0.4-1.7-0.8-2.5-1.2 0.9 0.4 1.7 0.8 2.5 1.2zM811.4 752.5c-0.1 0.1-0.2 0.3-0.3 0.4 0.1-0.1 0.2-0.3 0.3-0.4zM271.5 811.4c-0.1-0.1-0.3-0.2-0.4-0.3 0.1 0.1 0.3 0.2 0.4 0.3zM752.9 811.1c-0.1 0.1-0.3 0.2-0.4 0.3 0.1-0.1 0.3-0.2 0.4-0.3zM675.4 859.6c-0.8 0.4-1.7 0.8-2.5 1.2 0.8-0.4 1.6-0.8 2.5-1.2zM360 864.7l-3.3-1.5c1.1 0.6 2.2 1 3.3 1.5zM517.3 896h-0.4 0.4zM507.1 896h-0.4 0.4zM265.4 806.4c-0.8-0.7-1.6-1.3-2.4-2 0.8 0.6 1.6 1.3 2.4 2zM801.2 764.7c-1.2 1.4-2.5 2.8-3.8 4.3 1.3-1.5 2.5-2.9 3.8-4.3zM761 804.3c-0.8 0.7-1.6 1.4-2.4 2 0.8-0.6 1.6-1.3 2.4-2zM233.6 776.5c-1.8-1.9-3.6-3.8-5.3-5.7 1.7 1.9 3.5 3.8 5.3 5.7zM806.4 758.6c-0.7 0.8-1.3 1.6-2 2.4 0.6-0.8 1.3-1.6 2-2.4zM795.7 770.8c-1.8 1.9-3.5 3.8-5.3 5.7 1.8-1.9 3.6-3.8 5.3-5.7zM259.3 801.2c-1.4-1.2-2.8-2.5-4.3-3.8 1.5 1.3 2.9 2.5 4.3 3.8zM253.2 795.7c-1.9-1.8-3.8-3.5-5.7-5.3 1.9 1.8 3.8 3.6 5.7 5.3zM768.9 797.4c-1.4 1.3-2.8 2.5-4.3 3.8 1.5-1.3 2.9-2.5 4.3-3.8zM776.5 790.4c-1.9 1.8-3.8 3.6-5.7 5.3 1.9-1.7 3.8-3.5 5.7-5.3zM255.1 226.6c1.4-1.3 2.8-2.5 4.3-3.8-1.5 1.3-2.9 2.5-4.3 3.8zM263 219.7c0.8-0.7 1.6-1.4 2.4-2-0.8 0.6-1.6 1.3-2.4 2zM356.6 160.7l3.3-1.5c-1 0.6-2.1 1-3.3 1.5zM340.9 168.1c0.4-0.2 0.7-0.4 1.1-0.5-0.4 0.2-0.8 0.4-1.1 0.5zM271.1 212.9c0.1-0.1 0.3-0.2 0.4-0.3-0.1 0.1-0.3 0.2-0.4 0.3zM506.7 128h0.4-0.4zM348.6 164.4c0.8-0.4 1.7-0.8 2.5-1.2-0.8 0.4-1.6 0.8-2.5 1.2zM516.9 128h0.4-0.4zM247 234.1c-4.4 4.2-8.7 8.5-12.9 12.9 2.1-2.2 4.2-4.4 6.4-6.5s4.3-4.3 6.5-6.4zM160.7 667.4l-1.5-3.3c0.6 1 1 2.1 1.5 3.3zM777 789.9c4.4-4.2 8.7-8.5 12.9-12.9-2.1 2.2-4.2 4.4-6.4 6.5s-4.3 4.3-6.5 6.4zM234.1 777c4.2 4.4 8.5 8.7 12.9 12.9-2.2-2.1-4.4-4.2-6.5-6.4s-4.3-4.3-6.4-6.5zM159.3 360l1.5-3.3c-0.6 1.1-1 2.2-1.5 3.3zM167.6 342c0.2-0.4 0.4-0.7 0.5-1.1-0.1 0.3-0.3 0.7-0.5 1.1zM163.2 351.1c0.4-0.8 0.8-1.7 1.2-2.5-0.4 0.9-0.8 1.7-1.2 2.5zM247.5 233.6c1.9-1.8 3.8-3.6 5.7-5.3-1.9 1.7-3.8 3.5-5.7 5.3zM128 507.1v-0.4 0.4zM128 517.3v-0.4 0.4zM222.8 259.3c1.2-1.4 2.5-2.8 3.8-4.3-1.3 1.5-2.5 2.9-3.8 4.3zM212.6 271.5c0.1-0.1 0.2-0.3 0.4-0.4-0.2 0.1-0.3 0.3-0.4 0.4zM217.6 265.4c0.7-0.8 1.3-1.6 2-2.4-0.6 0.8-1.3 1.6-2 2.4zM228.3 253.2c1.8-1.9 3.5-3.8 5.3-5.7-1.8 1.9-3.6 3.8-5.3 5.7z" fill="#E28B65"/>
<path d="M860.8 351.1c0.8 1.8 1.7 3.7 2.5 5.5-0.8-1.8-1.7-3.6-2.5-5.5zM811.4 271.5c17.2 21.4 32.1 44.6 44.5 69.3-12.3-24.6-27.2-47.8-44.5-69.3zM856.4 342c1.1 2.2 2.2 4.4 3.2 6.6-1-2.2-2.1-4.4-3.2-6.6zM864.7 360c9.4 21.9 16.9 44.8 22.2 68.5-5-22.5-12-44.5-21.1-65.9-0.3-0.9-0.7-1.8-1.1-2.6zM664 159.3c-0.9-0.4-1.7-0.8-2.6-1.1-21.5-9.1-43.6-16.1-66.2-21.1 23.9 5.2 46.9 12.7 68.8 22.2zM789.9 247l0.5 0.5-0.5-0.5zM776.5 233.6l0.5 0.5-0.5-0.5zM795.7 253.2c0.6 0.6 1.1 1.2 1.7 1.8-0.6-0.5-1.1-1.1-1.7-1.8zM683.1 168.1c24.8 12.3 48 27.3 69.3 44.4-21.4-17.2-44.6-32.1-69.3-44.4zM761 219.7c1.2 1 2.5 2.1 3.7 3.2-1.3-1.1-2.5-2.2-3.7-3.2zM752.9 212.9c1.9 1.5 3.8 3.1 5.7 4.7-1.9-1.5-3.8-3.1-5.7-4.7zM768.9 226.6c0.6 0.6 1.2 1.1 1.8 1.7-0.6-0.6-1.2-1.1-1.8-1.7zM801.2 259.3c1.1 1.2 2.1 2.4 3.2 3.7-1.1-1.2-2.2-2.4-3.2-3.7zM667.4 160.7c1.8 0.8 3.7 1.6 5.5 2.5-1.9-0.8-3.7-1.7-5.5-2.5zM806.4 265.4c1.6 1.9 3.1 3.8 4.7 5.7-1.6-1.9-3.2-3.8-4.7-5.7zM675.4 164.4c2.2 1 4.4 2.1 6.6 3.2-2.2-1.1-4.4-2.2-6.6-3.2z" fill="#1e9baf"/>
<path d="M863.3 356.7c-0.8-1.8-1.7-3.7-2.5-5.5-0.4-0.8-0.8-1.7-1.2-2.5-1-2.2-2.1-4.4-3.2-6.6-0.2-0.4-0.4-0.7-0.5-1.1-12.3-24.8-27.3-48-44.5-69.3-0.1-0.1-0.2-0.3-0.3-0.4-1.5-1.9-3.1-3.8-4.7-5.7-0.7-0.8-1.3-1.6-2-2.4-1-1.2-2.1-2.5-3.2-3.7-1.2-1.4-2.5-2.8-3.8-4.3-0.6-0.6-1.1-1.2-1.7-1.8-1.8-1.9-3.5-3.8-5.3-5.7l-0.5-0.5c-2.1-2.2-4.2-4.4-6.4-6.5s-4.3-4.3-6.5-6.4l-0.5-0.5c-1.9-1.8-3.8-3.6-5.7-5.3-0.6-0.6-1.2-1.1-1.8-1.7-1.4-1.3-2.8-2.5-4.3-3.8-1.2-1.1-2.4-2.1-3.7-3.2-0.8-0.7-1.6-1.4-2.4-2-1.9-1.6-3.8-3.1-5.7-4.7-0.1-0.1-0.3-0.2-0.4-0.3-21.4-17.2-44.6-32.1-69.3-44.4-0.4-0.2-0.7-0.4-1.1-0.5-2.2-1.1-4.4-2.2-6.6-3.2-0.8-0.4-1.7-0.8-2.5-1.2-1.8-0.8-3.7-1.7-5.5-2.5l-3.3-1.5c-21.9-9.5-44.9-17-68.8-22.2L553.7 325c72.5 16 129.6 73.1 145.6 145.5L887 428.7c-5.3-23.7-12.7-46.6-22.2-68.5-0.6-1.3-1-2.4-1.5-3.5z" fill="#1e9baf"/>
<path d="M664 159.3l3.3 1.5c1.8 0.8 3.7 1.7 5.5 2.5 0.8 0.4 1.7 0.8 2.5 1.2 2.2 1 4.4 2.1 6.6 3.2 0.4 0.2 0.7 0.4 1.1 0.5 24.7 12.3 47.9 27.2 69.3 44.4 0.1 0.1 0.3 0.2 0.4 0.3 1.9 1.5 3.8 3.1 5.7 4.7 0.8 0.7 1.6 1.3 2.4 2 1.2 1 2.5 2.1 3.7 3.2 1.4 1.2 2.8 2.5 4.3 3.8 0.6 0.6 1.2 1.1 1.8 1.7 1.9 1.8 3.8 3.5 5.7 5.3l0.5 0.5c4.4 4.2 8.7 8.5 12.9 12.9l0.5 0.5c1.8 1.9 3.6 3.8 5.3 5.7 0.6 0.6 1.1 1.2 1.7 1.8 1.3 1.4 2.5 2.8 3.8 4.3 1.1 1.2 2.1 2.4 3.2 3.7 0.7 0.8 1.4 1.6 2 2.4 1.6 1.9 3.1 3.8 4.7 5.7 0.1 0.1 0.2 0.3 0.3 0.4 17.3 21.5 32.2 44.7 44.5 69.3 0.2 0.4 0.4 0.7 0.5 1.1 1.1 2.2 2.2 4.4 3.2 6.6 0.4 0.8 0.8 1.7 1.2 2.5 0.8 1.8 1.7 3.7 2.5 5.5l1.5 3.3c0.4 0.9 0.8 1.7 1.1 2.6 9.1 21.4 16.1 43.4 21.1 65.9l62.4-13.9C911.8 245.3 778.5 112 609.1 74.6L595.3 137c22.6 5 44.7 12 66.2 21.1 0.8 0.4 1.7 0.8 2.5 1.2z" fill="#58c0d0"/>
<path d="M664 159.3l3.3 1.5c-1.1-0.6-2.2-1-3.3-1.5zM758.6 217.6c0.8 0.7 1.6 1.3 2.4 2-0.8-0.6-1.6-1.3-2.4-2zM672.9 163.2c0.8 0.4 1.7 0.8 2.5 1.2-0.9-0.4-1.7-0.8-2.5-1.2zM811.1 271.1c0.1 0.1 0.2 0.3 0.3 0.4-0.1-0.1-0.2-0.3-0.3-0.4zM752.5 212.6c0.1 0.1 0.3 0.2 0.4 0.3-0.1-0.1-0.3-0.2-0.4-0.3zM682 167.6c0.4 0.2 0.7 0.4 1.1 0.5-0.3-0.1-0.7-0.3-1.1-0.5zM859.6 348.6c0.4 0.8 0.8 1.7 1.2 2.5-0.4-0.8-0.8-1.6-1.2-2.5zM804.3 263c0.7 0.8 1.4 1.6 2 2.4-0.6-0.8-1.3-1.6-2-2.4zM863.3 356.7l1.5 3.3c-0.6-1.1-1-2.2-1.5-3.3zM855.9 340.9c0.2 0.4 0.4 0.7 0.5 1.1-0.2-0.4-0.4-0.8-0.5-1.1zM790.4 247.5c1.8 1.9 3.6 3.8 5.3 5.7-1.7-1.9-3.5-3.8-5.3-5.7zM764.7 222.8c1.4 1.2 2.8 2.5 4.3 3.8-1.5-1.3-2.9-2.5-4.3-3.8zM789.9 247c-4.2-4.4-8.5-8.7-12.9-12.9 2.2 2.1 4.4 4.2 6.5 6.4s4.3 4.3 6.4 6.5zM770.8 228.3c1.9 1.8 3.8 3.5 5.7 5.3-1.9-1.8-3.8-3.6-5.7-5.3zM797.4 255.1c1.3 1.4 2.5 2.8 3.8 4.3-1.3-1.5-2.5-2.9-3.8-4.3z" fill="#1e9baf"/>
</g>
</svg>