<svg width="180" height="55" viewBox="180 55" xmlns="http://www.w3.org/2000/svg">
  <path d="M0 42.188V39.17a31 31 0 0 0 2.382.8q1.358.398 2.906.738a28 28 0 0 0 3.965.567 35 35 0 0 0 2.583.092 20 20 0 0 0 3.06-.227 15 15 0 0 0 2.873-.74q2.592-.966 4.086-2.929a7.14 7.14 0 0 0 1.302-2.936 10 10 0 0 0 .193-2.015q0-2.434-1.061-4.056a6 6 0 0 0-.185-.266q-1.084-1.467-3.114-2.579a15 15 0 0 0-.621-.321q-2.49-1.216-6.269-2.476a54 54 0 0 1-2.814-1.054 42 42 0 0 1-1.976-.865 18 18 0 0 1-2.111-1.164 14 14 0 0 1-1.566-1.179q-1.524-1.333-2.329-3.223t-.806-4.468a11.6 11.6 0 0 1 .333-2.838A8.8 8.8 0 0 1 2.3 4.907a10.8 10.8 0 0 1 3.779-3.154 13 13 0 0 1 1.113-.508Q10.283 0 14.15 0a30 30 0 0 1 4.442.321 26 26 0 0 1 1.403.25 26.3 26.3 0 0 1 5.347 1.714l-1.055 2.608q-2.578-1.114-5.156-1.641a25.4 25.4 0 0 0-5.098-.527 17.4 17.4 0 0 0-2.842.221 13.2 13.2 0 0 0-2.534.672A9 9 0 0 0 6.428 4.82a7.7 7.7 0 0 0-1.506 1.479 6.5 6.5 0 0 0-1.211 2.73 9 9 0 0 0-.166 1.782 10 10 0 0 0 .165 1.881q.293 1.552 1.109 2.66a8.5 8.5 0 0 0 1.836 1.802 11.6 11.6 0 0 0 1.797 1.069 38 38 0 0 0 2.229.988q1.155.472 2.463.932a66 66 0 0 0 .889.306 60 60 0 0 1 3.131 1.153q1.883.758 3.432 1.557a13 13 0 0 1 2.375 1.552 10.3 10.3 0 0 1 1.887 2.037q1.509 2.168 1.509 5.654a12.6 12.6 0 0 1-.344 3.017 9.4 9.4 0 0 1-1.589 3.414 11.4 11.4 0 0 1-4.195 3.434 14 14 0 0 1-1.05.463 18.5 18.5 0 0 1-4.421 1.112 24 24 0 0 1-3.079.191q-2.607 0-4.731-.249a38 38 0 0 1-2.021-.289 29 29 0 0 1-1.817-.37 29 29 0 0 1-1.831-.498A23 23 0 0 1 0 42.188Z" vector-effect="non-scaling-stroke" transform="translate(16 5)" stroke-linecap="round" fill-rule="evenodd" font-size="12" stroke="#323232" stroke-width="1mm" style="stroke:#323232;stroke-width:1mm;fill:#000"/>
  <path d="M25.137 24.756v20.83h-2.93V24.932a16.5 16.5 0 0 0-.181-2.534q-.202-1.294-.629-2.327a6.6 6.6 0 0 0-1.358-2.112 6.95 6.95 0 0 0-3.06-1.8q-1.074-.32-2.359-.4a14 14 0 0 0-.88-.027 14.4 14.4 0 0 0-3.175.33q-2.186.496-3.77 1.737a8.5 8.5 0 0 0-1.067.995 9.5 9.5 0 0 0-1.893 3.276q-.506 1.439-.72 3.209a23 23 0 0 0-.156 2.758v17.549H0V13.74h2.402l.44 5.801h.176a11.3 11.3 0 0 1 2.329-3.237 10.4 10.4 0 0 1 2.482-1.782 13 13 0 0 1 1.165-.533 11.8 11.8 0 0 1 2.582-.687 16 16 0 0 1 2.457-.177q4.009 0 6.625 1.572a8.7 8.7 0 0 1 1.608 1.24q2.242 2.197 2.733 6.342a21 21 0 0 1 .138 2.477Zm32.49-5.186h.234q-.117-1.552-.175-3.34a115 115 0 0 1-.044-1.713 88 88 0 0 1-.015-1.568V0h2.959v45.586h-2.402l-.381-5.83h-.176a11.5 11.5 0 0 1-2.183 3.223 9.6 9.6 0 0 1-2.474 1.859 12 12 0 0 1-.997.47 10.6 10.6 0 0 1-2.215.634q-1.284.23-2.795.23a16.5 16.5 0 0 1-4.037-.465 10.92 10.92 0 0 1-5.909-3.651 13.3 13.3 0 0 1-2.363-4.413q-.624-1.908-.877-4.224a31 31 0 0 1-.173-3.36 30 30 0 0 1 .351-4.78q.775-4.837 3.252-7.818a11.75 11.75 0 0 1 7.732-4.184 17 17 0 0 1 2.317-.152q2.754 0 4.79.85a10.6 10.6 0 0 1 2.37 1.354 9 9 0 0 1 1.058.945 10.5 10.5 0 0 1 2.153 3.296Zm.029 10.518v-.469a31 31 0 0 0-.226-3.859q-.237-1.869-.724-3.407a12.2 12.2 0 0 0-1.423-3.061 7.66 7.66 0 0 0-4.814-3.273 12.6 12.6 0 0 0-2.92-.316 12.1 12.1 0 0 0-3.419.456 8.87 8.87 0 0 0-4.682 3.236q-2.798 3.691-2.798 10.722a27 27 0 0 0 .244 3.738q.555 3.928 2.378 6.311a8.4 8.4 0 0 0 4.897 3.089 13.4 13.4 0 0 0 3.116.339 14 14 0 0 0 2.98-.293q3.331-.719 5.018-3.208 1.738-2.563 2.203-6.736a30 30 0 0 0 .17-3.269ZM71.133 13.74h2.959v31.846h-2.959zm3.164-11.118a1.6 1.6 0 0 0-.349-.322q-.496-.337-1.292-.337h-.011q-.339.001-.624.071a1.7 1.7 0 0 0-.947.588q-.342.428-.462 1.046a4 4 0 0 0-.065.727 4 4 0 0 0 .007.258q.056.932.52 1.499.528.645 1.582.645a4 4 0 0 0 .224-.007q.327-.021.598-.104a1.66 1.66 0 0 0 .819-.534 2 2 0 0 0 .212-.316q.175-.323.253-.731a4 4 0 0 0 .062-.71q0-.522-.116-.944a2.3 2.3 0 0 0-.411-.829Z" vector-effect="non-scaling-stroke" transform="translate(91 5)" stroke-linecap="round" fill-rule="evenodd" font-size="12" stroke="#323232" stroke-width="1mm" style="stroke:#323232;stroke-width:1mm;fill:#000"/>
  <g transform="matrix(.04 0 0 .04 45.7 14)">
    &gt;
    <g stroke-width="0"/>
    <g stroke-linecap="round" stroke-linejoin="round"/>
    <path d="M702.6 490.9c.8 6.9 1.2 14 1.2 21.1 0 105.9-85.9 191.8-191.8 191.8S320.2 617.9 320.2 512 406.1 320.2 512 320.2c7.2 0 14.2.4 21.2 1.2l21.2-191.1c-12.2-1.3-24.6-2.1-37.1-2.3h-10.6c-52.1.7-101.6 11.8-146.7 31.2l-3.3 1.5c-1.8.8-3.7 1.6-5.5 2.5-.8.4-1.7.8-2.5 1.2-2.2 1-4.4 2.1-6.6 3.2-.4.2-.7.4-1.1.5-24.8 12.3-48 27.3-69.3 44.4-.1.1-.3.2-.4.3-1.9 1.5-3.8 3.1-5.7 4.7-.8.7-1.6 1.3-2.4 2-1.2 1-2.5 2.1-3.7 3.2-1.4 1.2-2.8 2.5-4.3 3.8-.6.6-1.2 1.1-1.8 1.7-1.9 1.8-3.8 3.5-5.7 5.3l-.5.5c-2.2 2.1-4.4 4.2-6.5 6.4s-4.3 4.3-6.4 6.5l-.5.5c-1.8 1.9-3.6 3.8-5.3 5.7-.6.6-1.1 1.2-1.7 1.8-1.3 1.4-2.5 2.8-3.8 4.3-1.1 1.2-2.1 2.4-3.2 3.7-.7.8-1.4 1.6-2 2.4-1.6 1.9-3.1 3.8-4.7 5.7-.1.1-.2.3-.4.4-17.2 21.4-32.1 44.6-44.4 69.3-.2.4-.4.7-.5 1.1-1.1 2.2-2.2 4.4-3.2 6.6-.4.8-.8 1.7-1.2 2.5-.8 1.8-1.7 3.7-2.5 5.5l-1.5 3.3c-19.5 45.1-30.5 94.6-31.2 146.7V517c.7 52.1 11.8 101.6 31.2 146.7l1.5 3.3c.8 1.8 1.6 3.7 2.5 5.5.4.8.8 1.7 1.2 2.5 1 2.2 2.1 4.4 3.2 6.6.2.4.4.7.5 1.1 12.3 24.7 27.3 48 44.4 69.3.1.1.2.3.4.4 1.5 1.9 3.1 3.8 4.7 5.7.7.8 1.3 1.6 2 2.4 1 1.2 2.1 2.5 3.2 3.7 1.2 1.4 2.5 2.8 3.8 4.3.6.6 1.1 1.2 1.7 1.8 1.8 1.9 3.5 3.8 5.3 5.7l.5.5c2.1 2.2 4.2 4.4 6.4 6.5s4.3 4.3 6.5 6.4l.5.5c1.9 1.8 3.8 3.6 5.7 5.3.6.6 1.2 1.1 1.8 1.7 1.4 1.3 2.8 2.5 4.3 3.8 1.2 1.1 2.4 2.1 3.7 3.2.8.7 1.6 1.4 2.4 2 1.9 1.6 3.8 3.1 5.7 4.7.1.1.3.2.4.3 21.4 17.2 44.6 32.1 69.3 44.4.4.2.7.4 1.1.5 2.2 1.1 4.4 2.2 6.6 3.2.8.4 1.7.8 2.5 1.2 1.8.8 3.7 1.7 5.5 2.5l3.3 1.5c45.1 19.5 94.6 30.5 146.7 31.2h10.6c52.1-.7 101.6-11.8 146.7-31.2l3.3-1.5c1.8-.8 3.7-1.6 5.5-2.5.8-.4 1.7-.8 2.5-1.2 2.2-1 4.4-2.1 6.6-3.2.4-.2.7-.4 1.1-.5 24.8-12.3 48-27.3 69.3-44.4.1-.1.3-.2.4-.3 1.9-1.5 3.8-3.1 5.7-4.7.8-.7 1.6-1.3 2.4-2 1.2-1 2.5-2.1 3.7-3.2 1.4-1.2 2.8-2.5 4.3-3.8.6-.6 1.2-1.1 1.8-1.7 1.9-1.8 3.8-3.5 5.7-5.3l.5-.5c2.2-2.1 4.4-4.2 6.5-6.4s4.3-4.3 6.4-6.5l.5-.5c1.8-1.9 3.6-3.8 5.3-5.7.6-.6 1.1-1.2 1.7-1.8 1.3-1.4 2.5-2.8 3.8-4.3 1.1-1.2 2.1-2.4 3.2-3.7.7-.8 1.4-1.6 2-2.4 1.6-1.9 3.1-3.8 4.7-5.7.1-.1.2-.3.3-.4 17.2-21.4 32.1-44.6 44.4-69.3.2-.4.4-.7.5-1.1 1.1-2.2 2.2-4.4 3.2-6.6.4-.8.8-1.7 1.2-2.5.8-1.8 1.7-3.7 2.5-5.5l1.5-3.3C884 618.6 895 569.1 895.7 517v-10.6c-.2-12.5-.9-24.8-2.3-37z" fill="#E28B65"/>
    <path d="M893.7 469.7c1.3 12.2 2.1 24.6 2.3 37v10.6c-.7 50-10.8 98.4-30.1 144.1-.4.9-.8 1.7-1.1 2.6l-1.5 3.3c-.8 1.8-1.7 3.7-2.5 5.5-.4.8-.8 1.7-1.2 2.5-1 2.2-2.1 4.4-3.2 6.6-.2.4-.4.7-.5 1.1-12.3 24.7-27.2 47.9-44.4 69.3-.1.1-.2.3-.3.4-1.5 1.9-3.1 3.8-4.7 5.7-.7.8-1.3 1.6-2 2.4-1 1.2-2.1 2.5-3.2 3.7-1.2 1.4-2.5 2.8-3.8 4.3-.6.6-1.1 1.2-1.7 1.8-1.8 1.9-3.5 3.8-5.3 5.7l-.5.5q-6.3 6.6-12.9 12.9l-.5.5c-1.9 1.8-3.8 3.6-5.7 5.3-.6.6-1.2 1.1-1.8 1.7-1.4 1.3-2.8 2.5-4.3 3.8-1.2 1.1-2.4 2.1-3.7 3.2-.8.7-1.6 1.4-2.4 2-1.9 1.6-3.8 3.1-5.7 4.7-.1.1-.3.2-.4.3-21.5 17.3-44.7 32.2-69.3 44.4-.4.2-.7.4-1.1.5-2.2 1.1-4.4 2.2-6.6 3.2-.8.4-1.7.8-2.5 1.2-1.8.8-3.7 1.7-5.5 2.5l-3.3 1.5c-.9.4-1.7.8-2.6 1.1-45.7 19.3-94.1 29.4-144.1 30.1H507c-50-.7-98.4-10.8-144.1-30.1-.9-.4-1.7-.8-2.6-1.1L357 863c-1.8-.8-3.7-1.7-5.5-2.5-.8-.4-1.7-.8-2.5-1.2-2.2-1-4.4-2.1-6.6-3.2-.4-.2-.7-.4-1.1-.5-24.7-12.3-47.9-27.2-69.3-44.4-.1-.1-.3-.2-.4-.3-1.9-1.5-3.8-3.1-5.7-4.7-.8-.7-1.6-1.3-2.4-2-1.2-1-2.5-2.1-3.7-3.2-1.4-1.2-2.8-2.5-4.3-3.8-.6-.6-1.2-1.1-1.8-1.7-1.9-1.8-3.8-3.5-5.7-5.3l-.5-.5q-6.6-6.3-12.9-12.9l-.5-.5c-1.8-1.9-3.6-3.8-5.3-5.7-.6-.6-1.1-1.2-1.7-1.8-1.3-1.4-2.5-2.8-3.8-4.3-1.1-1.2-2.1-2.4-3.2-3.7-.7-.8-1.4-1.6-2-2.4-1.6-1.9-3.1-3.8-4.7-5.7-.1-.1-.2-.3-.4-.4-17.3-21.5-32.2-44.6-44.4-69.3-.2-.4-.4-.7-.5-1.1-1.1-2.2-2.2-4.4-3.2-6.6-.4-.8-.8-1.7-1.2-2.5-.8-1.8-1.7-3.7-2.5-5.5l-1.5-3.3c-.4-.9-.8-1.7-1.1-2.6-19.3-45.7-29.4-94.1-30.1-144.1v-10.6c.7-50 10.8-98.4 30.1-144.1.4-.9.8-1.7 1.1-2.6l1.5-3.3c.8-1.8 1.7-3.7 2.5-5.5.4-.8.8-1.7 1.2-2.5 1-2.2 2.1-4.4 3.2-6.6.2-.4.4-.7.5-1.1 12.3-24.7 27.2-47.9 44.4-69.3.1-.1.2-.3.4-.4 1.5-1.9 3.1-3.8 4.7-5.7.7-.8 1.3-1.6 2-2.4 1-1.2 2.1-2.5 3.2-3.7 1.2-1.4 2.5-2.8 3.8-4.3.6-.6 1.1-1.2 1.7-1.8 1.8-1.9 3.5-3.8 5.3-5.7l.5-.5q6.3-6.6 12.9-12.9l.5-.5c1.9-1.8 3.8-3.6 5.7-5.3.6-.6 1.2-1.1 1.8-1.7 1.4-1.3 2.8-2.5 4.3-3.8 1.2-1.1 2.4-2.1 3.7-3.2.8-.7 1.6-1.4 2.4-2 1.9-1.6 3.8-3.1 5.7-4.7.1-.1.3-.2.4-.3 21.5-17.3 44.7-32.2 69.3-44.4.4-.2.7-.4 1.1-.5 2.2-1.1 4.4-2.2 6.6-3.2.8-.4 1.7-.8 2.5-1.2 1.8-.8 3.7-1.7 5.5-2.5l3.3-1.5c.9-.4 1.7-.8 2.6-1.1C408.6 139.1 457 129 507 128.3h10.6c12.5.2 24.8.9 37.1 2.3l7.1-63.6c-16.6-2.1-33.1-3-49.8-3C264.6 64 64 264.6 64 512s200.6 448 448 448 448-200.6 448-448c0-16.7-.9-33.2-2.7-49.4z" fill="#f8b091"/>
    <path d="M164.4 675.4c-.4-.8-.8-1.7-1.2-2.5.4.8.8 1.6 1.2 2.5m692 6.6c-.2.4-.4.7-.5 1.1.1-.3.3-.7.5-1.1m-629.8 86.9c-1.3-1.4-2.5-2.8-3.8-4.3 1.3 1.5 2.5 2.9 3.8 4.3m-13.7-16c-.1-.1-.2-.3-.4-.4.2.1.3.3.4.4m-44.8-69.8c-.2-.4-.4-.7-.5-1.1.2.4.4.8.5 1.1M864.7 664l-1.5 3.3c.6-1.1 1-2.2 1.5-3.3m-3.9 8.9c-.4.8-.8 1.7-1.2 2.5.4-.9.8-1.7 1.2-2.5M219.7 761c-.7-.8-1.4-1.6-2-2.4.6.8 1.3 1.6 2 2.4M342 856.4c-.4-.2-.7-.4-1.1-.5.3.1.7.3 1.1.5m325.4 6.9-3.3 1.5c1-.6 2.1-1 3.3-1.5m15.7-7.4c-.4.2-.7.4-1.1.5.4-.2.8-.4 1.1-.5m-332 4.9c-.8-.4-1.7-.8-2.5-1.2.9.4 1.7.8 2.5 1.2m460.3-108.3c-.1.1-.2.3-.3.4.1-.1.2-.3.3-.4m-539.9 58.9c-.1-.1-.3-.2-.4-.3.1.1.3.2.4.3m481.4-.3c-.1.1-.3.2-.4.3.1-.1.3-.2.4-.3m-77.5 48.5c-.8.4-1.7.8-2.5 1.2.8-.4 1.6-.8 2.5-1.2M360 864.7l-3.3-1.5c1.1.6 2.2 1 3.3 1.5M517.3 896h-.4zm-10.2 0h-.4zm-241.7-89.6c-.8-.7-1.6-1.3-2.4-2 .8.6 1.6 1.3 2.4 2m535.8-41.7c-1.2 1.4-2.5 2.8-3.8 4.3 1.3-1.5 2.5-2.9 3.8-4.3M761 804.3c-.8.7-1.6 1.4-2.4 2 .8-.6 1.6-1.3 2.4-2m-527.4-27.8c-1.8-1.9-3.6-3.8-5.3-5.7 1.7 1.9 3.5 3.8 5.3 5.7m572.8-17.9c-.7.8-1.3 1.6-2 2.4.6-.8 1.3-1.6 2-2.4m-10.7 12.2c-1.8 1.9-3.5 3.8-5.3 5.7 1.8-1.9 3.6-3.8 5.3-5.7m-536.4 30.4c-1.4-1.2-2.8-2.5-4.3-3.8 1.5 1.3 2.9 2.5 4.3 3.8m-6.1-5.5c-1.9-1.8-3.8-3.5-5.7-5.3 1.9 1.8 3.8 3.6 5.7 5.3m515.7 1.7c-1.4 1.3-2.8 2.5-4.3 3.8 1.5-1.3 2.9-2.5 4.3-3.8m7.6-7c-1.9 1.8-3.8 3.6-5.7 5.3 1.9-1.7 3.8-3.5 5.7-5.3M255.1 226.6c1.4-1.3 2.8-2.5 4.3-3.8-1.5 1.3-2.9 2.5-4.3 3.8m7.9-6.9c.8-.7 1.6-1.4 2.4-2-.8.6-1.6 1.3-2.4 2m93.6-59 3.3-1.5c-1 .6-2.1 1-3.3 1.5m-15.7 7.4c.4-.2.7-.4 1.1-.5-.4.2-.8.4-1.1.5m-69.8 44.8c.1-.1.3-.2.4-.3-.1.1-.3.2-.4.3M506.7 128h.4zm-158.1 36.4c.8-.4 1.7-.8 2.5-1.2-.8.4-1.6.8-2.5 1.2M516.9 128h.4zM247 234.1q-6.6 6.3-12.9 12.9c2.1-2.2 4.2-4.4 6.4-6.5s4.3-4.3 6.5-6.4m-86.3 433.3-1.5-3.3c.6 1 1 2.1 1.5 3.3M777 789.9q6.6-6.3 12.9-12.9c-2.1 2.2-4.2 4.4-6.4 6.5s-4.3 4.3-6.5 6.4M234.1 777q6.3 6.6 12.9 12.9c-2.2-2.1-4.4-4.2-6.5-6.4s-4.3-4.3-6.4-6.5m-74.8-417 1.5-3.3c-.6 1.1-1 2.2-1.5 3.3m8.3-18c.2-.4.4-.7.5-1.1-.1.3-.3.7-.5 1.1m-4.4 9.1c.4-.8.8-1.7 1.2-2.5-.4.9-.8 1.7-1.2 2.5m84.3-117.5c1.9-1.8 3.8-3.6 5.7-5.3-1.9 1.7-3.8 3.5-5.7 5.3M128 507.1v-.4zm0 10.2v-.4zm94.8-258c1.2-1.4 2.5-2.8 3.8-4.3-1.3 1.5-2.5 2.9-3.8 4.3m-10.2 12.2c.1-.1.2-.3.4-.4-.2.1-.3.3-.4.4m5-6.1c.7-.8 1.3-1.6 2-2.4-.6.8-1.3 1.6-2 2.4m10.7-12.2c1.8-1.9 3.5-3.8 5.3-5.7-1.8 1.9-3.6 3.8-5.3 5.7" fill="#E28B65"/>
    <path d="M860.8 351.1c.8 1.8 1.7 3.7 2.5 5.5-.8-1.8-1.7-3.6-2.5-5.5m-49.4-79.6c17.2 21.4 32.1 44.6 44.5 69.3-12.3-24.6-27.2-47.8-44.5-69.3m45 70.5c1.1 2.2 2.2 4.4 3.2 6.6-1-2.2-2.1-4.4-3.2-6.6m8.3 18c9.4 21.9 16.9 44.8 22.2 68.5-5-22.5-12-44.5-21.1-65.9-.3-.9-.7-1.8-1.1-2.6M664 159.3c-.9-.4-1.7-.8-2.6-1.1-21.5-9.1-43.6-16.1-66.2-21.1 23.9 5.2 46.9 12.7 68.8 22.2M789.9 247l.5.5zm-13.4-13.4.5.5zm19.2 19.6c.6.6 1.1 1.2 1.7 1.8-.6-.5-1.1-1.1-1.7-1.8m-112.6-85.1c24.8 12.3 48 27.3 69.3 44.4-21.4-17.2-44.6-32.1-69.3-44.4m77.9 51.6c1.2 1 2.5 2.1 3.7 3.2-1.3-1.1-2.5-2.2-3.7-3.2m-8.1-6.8c1.9 1.5 3.8 3.1 5.7 4.7-1.9-1.5-3.8-3.1-5.7-4.7m16 13.7c.6.6 1.2 1.1 1.8 1.7-.6-.6-1.2-1.1-1.8-1.7m32.3 32.7c1.1 1.2 2.1 2.4 3.2 3.7-1.1-1.2-2.2-2.4-3.2-3.7m-133.8-98.6c1.8.8 3.7 1.6 5.5 2.5-1.9-.8-3.7-1.7-5.5-2.5m139 104.7c1.6 1.9 3.1 3.8 4.7 5.7-1.6-1.9-3.2-3.8-4.7-5.7m-131-101c2.2 1 4.4 2.1 6.6 3.2-2.2-1.1-4.4-2.2-6.6-3.2" fill="#1e9baf"/>
    <path d="M863.3 356.7c-.8-1.8-1.7-3.7-2.5-5.5-.4-.8-.8-1.7-1.2-2.5-1-2.2-2.1-4.4-3.2-6.6-.2-.4-.4-.7-.5-1.1-12.3-24.8-27.3-48-44.5-69.3-.1-.1-.2-.3-.3-.4-1.5-1.9-3.1-3.8-4.7-5.7-.7-.8-1.3-1.6-2-2.4-1-1.2-2.1-2.5-3.2-3.7-1.2-1.4-2.5-2.8-3.8-4.3-.6-.6-1.1-1.2-1.7-1.8-1.8-1.9-3.5-3.8-5.3-5.7l-.5-.5c-2.1-2.2-4.2-4.4-6.4-6.5s-4.3-4.3-6.5-6.4l-.5-.5c-1.9-1.8-3.8-3.6-5.7-5.3-.6-.6-1.2-1.1-1.8-1.7-1.4-1.3-2.8-2.5-4.3-3.8-1.2-1.1-2.4-2.1-3.7-3.2-.8-.7-1.6-1.4-2.4-2-1.9-1.6-3.8-3.1-5.7-4.7-.1-.1-.3-.2-.4-.3-21.4-17.2-44.6-32.1-69.3-44.4-.4-.2-.7-.4-1.1-.5-2.2-1.1-4.4-2.2-6.6-3.2-.8-.4-1.7-.8-2.5-1.2-1.8-.8-3.7-1.7-5.5-2.5l-3.3-1.5c-21.9-9.5-44.9-17-68.8-22.2L553.7 325c72.5 16 129.6 73.1 145.6 145.5L887 428.7c-5.3-23.7-12.7-46.6-22.2-68.5-.6-1.3-1-2.4-1.5-3.5" fill="#1e9baf"/>
    <path d="m664 159.3 3.3 1.5c1.8.8 3.7 1.7 5.5 2.5.8.4 1.7.8 2.5 1.2 2.2 1 4.4 2.1 6.6 3.2.4.2.7.4 1.1.5 24.7 12.3 47.9 27.2 69.3 44.4.1.1.3.2.4.3 1.9 1.5 3.8 3.1 5.7 4.7.8.7 1.6 1.3 2.4 2 1.2 1 2.5 2.1 3.7 3.2 1.4 1.2 2.8 2.5 4.3 3.8.6.6 1.2 1.1 1.8 1.7 1.9 1.8 3.8 3.5 5.7 5.3l.5.5q6.6 6.3 12.9 12.9l.5.5c1.8 1.9 3.6 3.8 5.3 5.7.6.6 1.1 1.2 1.7 1.8 1.3 1.4 2.5 2.8 3.8 4.3 1.1 1.2 2.1 2.4 3.2 3.7.7.8 1.4 1.6 2 2.4 1.6 1.9 3.1 3.8 4.7 5.7.1.1.2.3.3.4 17.3 21.5 32.2 44.7 44.5 69.3.2.4.4.7.5 1.1 1.1 2.2 2.2 4.4 3.2 6.6.4.8.8 1.7 1.2 2.5.8 1.8 1.7 3.7 2.5 5.5l1.5 3.3c.4.9.8 1.7 1.1 2.6 9.1 21.4 16.1 43.4 21.1 65.9l62.4-13.9C911.8 245.3 778.5 112 609.1 74.6L595.3 137c22.6 5 44.7 12 66.2 21.1.8.4 1.7.8 2.5 1.2" fill="#58c0d0"/>
    <path d="m664 159.3 3.3 1.5c-1.1-.6-2.2-1-3.3-1.5m94.6 58.3c.8.7 1.6 1.3 2.4 2-.8-.6-1.6-1.3-2.4-2m-85.7-54.4c.8.4 1.7.8 2.5 1.2-.9-.4-1.7-.8-2.5-1.2m138.2 107.9c.1.1.2.3.3.4-.1-.1-.2-.3-.3-.4m-58.6-58.5c.1.1.3.2.4.3-.1-.1-.3-.2-.4-.3m-70.5-45c.4.2.7.4 1.1.5-.3-.1-.7-.3-1.1-.5m177.6 181c.4.8.8 1.7 1.2 2.5-.4-.8-.8-1.6-1.2-2.5M804.3 263c.7.8 1.4 1.6 2 2.4-.6-.8-1.3-1.6-2-2.4m59 93.7 1.5 3.3c-.6-1.1-1-2.2-1.5-3.3m-7.4-15.8c.2.4.4.7.5 1.1-.2-.4-.4-.8-.5-1.1m-65.5-93.4c1.8 1.9 3.6 3.8 5.3 5.7-1.7-1.9-3.5-3.8-5.3-5.7m-25.7-24.7c1.4 1.2 2.8 2.5 4.3 3.8-1.5-1.3-2.9-2.5-4.3-3.8m25.2 24.2q-6.3-6.6-12.9-12.9c2.2 2.1 4.4 4.2 6.5 6.4s4.3 4.3 6.4 6.5m-19.1-18.7c1.9 1.8 3.8 3.5 5.7 5.3-1.9-1.8-3.8-3.6-5.7-5.3m26.6 26.8c1.3 1.4 2.5 2.8 3.8 4.3-1.3-1.5-2.5-2.9-3.8-4.3" fill="#1e9baf"/>
  </g>
</svg>
