<!DOCTYPE svg PUBLIC "-//W3C//DTD SVG 1.1//EN" "http://www.w3.org/Graphics/SVG/1.1/DTD/svg11.dtd">
<!-- Uploaded to: SVG Repo, www.svgrepo.com, Transformed by: SVG Repo Mixer Tools -->
<svg version="1.0" id="Layer_1" xmlns="http://www.w3.org/2000/svg" xmlns:xlink="http://www.w3.org/1999/xlink" width="800px" height="800px" viewBox="0 0 64 64" enable-background="new 0 0 64 64" xml:space="preserve" fill="#000000">
<g id="SVGRepo_bgCarrier" stroke-width="0"/>
<g id="SVGRepo_tracerCarrier" stroke-linecap="round" stroke-linejoin="round"/>
<g id="SVGRepo_iconCarrier"> <g> <path fill="#394240" d="M60,32c0-2.211-1.789-4-4-4H44V4c0-2.211-1.789-4-4-4H24c-2.211,0-4,1.789-4,4v12H8c-2.211,0-4,1.789-4,4 v44h56V32z M20,56h-8V24h8V56z M36,32v24h-8V20V8h8V32z M52,56h-8V36h8V56z"/> <rect x="12" y="24" fill="#95f4a8" width="8" height="32"/> <rect x="28" y="8" fill="#47d3e6" width="8" height="48"/> <rect x="44" y="36" fill="#fb7560" width="8" height="20"/> </g> </g>
</svg>