<svg width="200" height="100" viewBox="200 100" xmlns="http://www.w3.org/2000/svg">
  <text x="10" y="50" font-family="Arial" font-size="60" fill="#323232">S</text>
  <text x="86" y="50" font-family="Arial" font-size="60" fill="#323232">ndi</text>
  <g transform="matrix(.04 0 0 .04 47.7 13.2)">
    &gt;
    <g stroke-width="0"/>
    <g stroke-linecap="round" stroke-linejoin="round"/>
    <path d="M702.6 490.9c.8 6.9 1.2 14 1.2 21.1 0 105.9-85.9 191.8-191.8 191.8S320.2 617.9 320.2 512 406.1 320.2 512 320.2c7.2 0 14.2.4 21.2 1.2l21.2-191.1c-12.2-1.3-24.6-2.1-37.1-2.3h-10.6c-52.1.7-101.6 11.8-146.7 31.2l-3.3 1.5c-1.8.8-3.7 1.6-5.5 2.5-.8.4-1.7.8-2.5 1.2-2.2 1-4.4 2.1-6.6 3.2-.4.2-.7.4-1.1.5-24.8 12.3-48 27.3-69.3 44.4-.1.1-.3.2-.4.3-1.9 1.5-3.8 3.1-5.7 4.7-.8.7-1.6 1.3-2.4 2-1.2 1-2.5 2.1-3.7 3.2-1.4 1.2-2.8 2.5-4.3 3.8-.6.6-1.2 1.1-1.8 1.7-1.9 1.8-3.8 3.5-5.7 5.3l-.5.5c-2.2 2.1-4.4 4.2-6.5 6.4s-4.3 4.3-6.4 6.5l-.5.5c-1.8 1.9-3.6 3.8-5.3 5.7-.6.6-1.1 1.2-1.7 1.8-1.3 1.4-2.5 2.8-3.8 4.3-1.1 1.2-2.1 2.4-3.2 3.7-.7.8-1.4 1.6-2 2.4-1.6 1.9-3.1 3.8-4.7 5.7-.1.1-.2.3-.4.4-17.2 21.4-32.1 44.6-44.4 69.3-.2.4-.4.7-.5 1.1-1.1 2.2-2.2 4.4-3.2 6.6-.4.8-.8 1.7-1.2 2.5-.8 1.8-1.7 3.7-2.5 5.5l-1.5 3.3c-19.5 45.1-30.5 94.6-31.2 146.7V517c.7 52.1 11.8 101.6 31.2 146.7l1.5 3.3c.8 1.8 1.6 3.7 2.5 5.5.4.8.8 1.7 1.2 2.5 1 2.2 2.1 4.4 3.2 6.6.2.4.4.7.5 1.1 12.3 24.7 27.3 48 44.4 69.3.1.1.2.3.4.4 1.5 1.9 3.1 3.8 4.7 5.7.7.8 1.3 1.6 2 2.4 1 1.2 2.1 2.5 3.2 3.7 1.2 1.4 2.5 2.8 3.8 4.3.6.6 1.1 1.2 1.7 1.8 1.8 1.9 3.5 3.8 5.3 5.7l.5.5c2.1 2.2 4.2 4.4 6.4 6.5s4.3 4.3 6.5 6.4l.5.5c1.9 1.8 3.8 3.6 5.7 5.3.6.6 1.2 1.1 1.8 1.7 1.4 1.3 2.8 2.5 4.3 3.8 1.2 1.1 2.4 2.1 3.7 3.2.8.7 1.6 1.4 2.4 2 1.9 1.6 3.8 3.1 5.7 4.7.1.1.3.2.4.3 21.4 17.2 44.6 32.1 69.3 44.4.4.2.7.4 1.1.5 2.2 1.1 4.4 2.2 6.6 3.2.8.4 1.7.8 2.5 1.2 1.8.8 3.7 1.7 5.5 2.5l3.3 1.5c45.1 19.5 94.6 30.5 146.7 31.2h10.6c52.1-.7 101.6-11.8 146.7-31.2l3.3-1.5c1.8-.8 3.7-1.6 5.5-2.5.8-.4 1.7-.8 2.5-1.2 2.2-1 4.4-2.1 6.6-3.2.4-.2.7-.4 1.1-.5 24.8-12.3 48-27.3 69.3-44.4.1-.1.3-.2.4-.3 1.9-1.5 3.8-3.1 5.7-4.7.8-.7 1.6-1.3 2.4-2 1.2-1 2.5-2.1 3.7-3.2 1.4-1.2 2.8-2.5 4.3-3.8.6-.6 1.2-1.1 1.8-1.7 1.9-1.8 3.8-3.5 5.7-5.3l.5-.5c2.2-2.1 4.4-4.2 6.5-6.4s4.3-4.3 6.4-6.5l.5-.5c1.8-1.9 3.6-3.8 5.3-5.7.6-.6 1.1-1.2 1.7-1.8 1.3-1.4 2.5-2.8 3.8-4.3 1.1-1.2 2.1-2.4 3.2-3.7.7-.8 1.4-1.6 2-2.4 1.6-1.9 3.1-3.8 4.7-5.7.1-.1.2-.3.3-.4 17.2-21.4 32.1-44.6 44.4-69.3.2-.4.4-.7.5-1.1 1.1-2.2 2.2-4.4 3.2-6.6.4-.8.8-1.7 1.2-2.5.8-1.8 1.7-3.7 2.5-5.5l1.5-3.3C884 618.6 895 569.1 895.7 517v-10.6c-.2-12.5-.9-24.8-2.3-37z" fill="#E28B65"/>
    <path d="M893.7 469.7c1.3 12.2 2.1 24.6 2.3 37v10.6c-.7 50-10.8 98.4-30.1 144.1-.4.9-.8 1.7-1.1 2.6l-1.5 3.3c-.8 1.8-1.7 3.7-2.5 5.5-.4.8-.8 1.7-1.2 2.5-1 2.2-2.1 4.4-3.2 6.6-.2.4-.4.7-.5 1.1-12.3 24.7-27.2 47.9-44.4 69.3-.1.1-.2.3-.3.4-1.5 1.9-3.1 3.8-4.7 5.7-.7.8-1.3 1.6-2 2.4-1 1.2-2.1 2.5-3.2 3.7-1.2 1.4-2.5 2.8-3.8 4.3-.6.6-1.1 1.2-1.7 1.8-1.8 1.9-3.5 3.8-5.3 5.7l-.5.5q-6.3 6.6-12.9 12.9l-.5.5c-1.9 1.8-3.8 3.6-5.7 5.3-.6.6-1.2 1.1-1.8 1.7-1.4 1.3-2.8 2.5-4.3 3.8-1.2 1.1-2.4 2.1-3.7 3.2-.8.7-1.6 1.4-2.4 2-1.9 1.6-3.8 3.1-5.7 4.7-.1.1-.3.2-.4.3-21.5 17.3-44.7 32.2-69.3 44.4-.4.2-.7.4-1.1.5-2.2 1.1-4.4 2.2-6.6 3.2-.8.4-1.7.8-2.5 1.2-1.8.8-3.7 1.7-5.5 2.5l-3.3 1.5c-.9.4-1.7.8-2.6 1.1-45.7 19.3-94.1 29.4-144.1 30.1H507c-50-.7-98.4-10.8-144.1-30.1-.9-.4-1.7-.8-2.6-1.1L357 863c-1.8-.8-3.7-1.7-5.5-2.5-.8-.4-1.7-.8-2.5-1.2-2.2-1-4.4-2.1-6.6-3.2-.4-.2-.7-.4-1.1-.5-24.7-12.3-47.9-27.2-69.3-44.4-.1-.1-.3-.2-.4-.3-1.9-1.5-3.8-3.1-5.7-4.7-.8-.7-1.6-1.3-2.4-2-1.2-1-2.5-2.1-3.7-3.2-1.4-1.2-2.8-2.5-4.3-3.8-.6-.6-1.2-1.1-1.8-1.7-1.9-1.8-3.8-3.5-5.7-5.3l-.5-.5q-6.6-6.3-12.9-12.9l-.5-.5c-1.8-1.9-3.6-3.8-5.3-5.7-.6-.6-1.1-1.2-1.7-1.8-1.3-1.4-2.5-2.8-3.8-4.3-1.1-1.2-2.1-2.4-3.2-3.7-.7-.8-1.4-1.6-2-2.4-1.6-1.9-3.1-3.8-4.7-5.7-.1-.1-.2-.3-.4-.4-17.3-21.5-32.2-44.6-44.4-69.3-.2-.4-.4-.7-.5-1.1-1.1-2.2-2.2-4.4-3.2-6.6-.4-.8-.8-1.7-1.2-2.5-.8-1.8-1.7-3.7-2.5-5.5l-1.5-3.3c-.4-.9-.8-1.7-1.1-2.6-19.3-45.7-29.4-94.1-30.1-144.1v-10.6c.7-50 10.8-98.4 30.1-144.1.4-.9.8-1.7 1.1-2.6l1.5-3.3c.8-1.8 1.7-3.7 2.5-5.5.4-.8.8-1.7 1.2-2.5 1-2.2 2.1-4.4 3.2-6.6.2-.4.4-.7.5-1.1 12.3-24.7 27.2-47.9 44.4-69.3.1-.1.2-.3.4-.4 1.5-1.9 3.1-3.8 4.7-5.7.7-.8 1.3-1.6 2-2.4 1-1.2 2.1-2.5 3.2-3.7 1.2-1.4 2.5-2.8 3.8-4.3.6-.6 1.1-1.2 1.7-1.8 1.8-1.9 3.5-3.8 5.3-5.7l.5-.5q6.3-6.6 12.9-12.9l.5-.5c1.9-1.8 3.8-3.6 5.7-5.3.6-.6 1.2-1.1 1.8-1.7 1.4-1.3 2.8-2.5 4.3-3.8 1.2-1.1 2.4-2.1 3.7-3.2.8-.7 1.6-1.4 2.4-2 1.9-1.6 3.8-3.1 5.7-4.7.1-.1.3-.2.4-.3 21.5-17.3 44.7-32.2 69.3-44.4.4-.2.7-.4 1.1-.5 2.2-1.1 4.4-2.2 6.6-3.2.8-.4 1.7-.8 2.5-1.2 1.8-.8 3.7-1.7 5.5-2.5l3.3-1.5c.9-.4 1.7-.8 2.6-1.1C408.6 139.1 457 129 507 128.3h10.6c12.5.2 24.8.9 37.1 2.3l7.1-63.6c-16.6-2.1-33.1-3-49.8-3C264.6 64 64 264.6 64 512s200.6 448 448 448 448-200.6 448-448c0-16.7-.9-33.2-2.7-49.4z" fill="#f8b091"/>
    <path d="M164.4 675.4c-.4-.8-.8-1.7-1.2-2.5.4.8.8 1.6 1.2 2.5m692 6.6c-.2.4-.4.7-.5 1.1.1-.3.3-.7.5-1.1m-629.8 86.9c-1.3-1.4-2.5-2.8-3.8-4.3 1.3 1.5 2.5 2.9 3.8 4.3m-13.7-16c-.1-.1-.2-.3-.4-.4.2.1.3.3.4.4m-44.8-69.8c-.2-.4-.4-.7-.5-1.1.2.4.4.8.5 1.1M864.7 664l-1.5 3.3c.6-1.1 1-2.2 1.5-3.3m-3.9 8.9c-.4.8-.8 1.7-1.2 2.5.4-.9.8-1.7 1.2-2.5M219.7 761c-.7-.8-1.4-1.6-2-2.4.6.8 1.3 1.6 2 2.4M342 856.4c-.4-.2-.7-.4-1.1-.5.3.1.7.3 1.1.5m325.4 6.9-3.3 1.5c1-.6 2.1-1 3.3-1.5m15.7-7.4c-.4.2-.7.4-1.1.5.4-.2.8-.4 1.1-.5m-332 4.9c-.8-.4-1.7-.8-2.5-1.2.9.4 1.7.8 2.5 1.2m460.3-108.3c-.1.1-.2.3-.3.4.1-.1.2-.3.3-.4m-539.9 58.9c-.1-.1-.3-.2-.4-.3.1.1.3.2.4.3m481.4-.3c-.1.1-.3.2-.4.3.1-.1.3-.2.4-.3m-77.5 48.5c-.8.4-1.7.8-2.5 1.2.8-.4 1.6-.8 2.5-1.2M360 864.7l-3.3-1.5c1.1.6 2.2 1 3.3 1.5M517.3 896h-.4zm-10.2 0h-.4zm-241.7-89.6c-.8-.7-1.6-1.3-2.4-2 .8.6 1.6 1.3 2.4 2m535.8-41.7c-1.2 1.4-2.5 2.8-3.8 4.3 1.3-1.5 2.5-2.9 3.8-4.3M761 804.3c-.8.7-1.6 1.4-2.4 2 .8-.6 1.6-1.3 2.4-2m-527.4-27.8c-1.8-1.9-3.6-3.8-5.3-5.7 1.7 1.9 3.5 3.8 5.3 5.7m572.8-17.9c-.7.8-1.3 1.6-2 2.4.6-.8 1.3-1.6 2-2.4m-10.7 12.2c-1.8 1.9-3.5 3.8-5.3 5.7 1.8-1.9 3.6-3.8 5.3-5.7m-536.4 30.4c-1.4-1.2-2.8-2.5-4.3-3.8 1.5 1.3 2.9 2.5 4.3 3.8m-6.1-5.5c-1.9-1.8-3.8-3.5-5.7-5.3 1.9 1.8 3.8 3.6 5.7 5.3m515.7 1.7c-1.4 1.3-2.8 2.5-4.3 3.8 1.5-1.3 2.9-2.5 4.3-3.8m7.6-7c-1.9 1.8-3.8 3.6-5.7 5.3 1.9-1.7 3.8-3.5 5.7-5.3M255.1 226.6c1.4-1.3 2.8-2.5 4.3-3.8-1.5 1.3-2.9 2.5-4.3 3.8m7.9-6.9c.8-.7 1.6-1.4 2.4-2-.8.6-1.6 1.3-2.4 2m93.6-59 3.3-1.5c-1 .6-2.1 1-3.3 1.5m-15.7 7.4c.4-.2.7-.4 1.1-.5-.4.2-.8.4-1.1.5m-69.8 44.8c.1-.1.3-.2.4-.3-.1.1-.3.2-.4.3M506.7 128h.4zm-158.1 36.4c.8-.4 1.7-.8 2.5-1.2-.8.4-1.6.8-2.5 1.2M516.9 128h.4zM247 234.1q-6.6 6.3-12.9 12.9c2.1-2.2 4.2-4.4 6.4-6.5s4.3-4.3 6.5-6.4m-86.3 433.3-1.5-3.3c.6 1 1 2.1 1.5 3.3M777 789.9q6.6-6.3 12.9-12.9c-2.1 2.2-4.2 4.4-6.4 6.5s-4.3 4.3-6.5 6.4M234.1 777q6.3 6.6 12.9 12.9c-2.2-2.1-4.4-4.2-6.5-6.4s-4.3-4.3-6.4-6.5m-74.8-417 1.5-3.3c-.6 1.1-1 2.2-1.5 3.3m8.3-18c.2-.4.4-.7.5-1.1-.1.3-.3.7-.5 1.1m-4.4 9.1c.4-.8.8-1.7 1.2-2.5-.4.9-.8 1.7-1.2 2.5m84.3-117.5c1.9-1.8 3.8-3.6 5.7-5.3-1.9 1.7-3.8 3.5-5.7 5.3M128 507.1v-.4zm0 10.2v-.4zm94.8-258c1.2-1.4 2.5-2.8 3.8-4.3-1.3 1.5-2.5 2.9-3.8 4.3m-10.2 12.2c.1-.1.2-.3.4-.4-.2.1-.3.3-.4.4m5-6.1c.7-.8 1.3-1.6 2-2.4-.6.8-1.3 1.6-2 2.4m10.7-12.2c1.8-1.9 3.5-3.8 5.3-5.7-1.8 1.9-3.6 3.8-5.3 5.7" fill="#E28B65"/>
    <path d="M860.8 351.1c.8 1.8 1.7 3.7 2.5 5.5-.8-1.8-1.7-3.6-2.5-5.5m-49.4-79.6c17.2 21.4 32.1 44.6 44.5 69.3-12.3-24.6-27.2-47.8-44.5-69.3m45 70.5c1.1 2.2 2.2 4.4 3.2 6.6-1-2.2-2.1-4.4-3.2-6.6m8.3 18c9.4 21.9 16.9 44.8 22.2 68.5-5-22.5-12-44.5-21.1-65.9-.3-.9-.7-1.8-1.1-2.6M664 159.3c-.9-.4-1.7-.8-2.6-1.1-21.5-9.1-43.6-16.1-66.2-21.1 23.9 5.2 46.9 12.7 68.8 22.2M789.9 247l.5.5zm-13.4-13.4.5.5zm19.2 19.6c.6.6 1.1 1.2 1.7 1.8-.6-.5-1.1-1.1-1.7-1.8m-112.6-85.1c24.8 12.3 48 27.3 69.3 44.4-21.4-17.2-44.6-32.1-69.3-44.4m77.9 51.6c1.2 1 2.5 2.1 3.7 3.2-1.3-1.1-2.5-2.2-3.7-3.2m-8.1-6.8c1.9 1.5 3.8 3.1 5.7 4.7-1.9-1.5-3.8-3.1-5.7-4.7m16 13.7c.6.6 1.2 1.1 1.8 1.7-.6-.6-1.2-1.1-1.8-1.7m32.3 32.7c1.1 1.2 2.1 2.4 3.2 3.7-1.1-1.2-2.2-2.4-3.2-3.7m-133.8-98.6c1.8.8 3.7 1.6 5.5 2.5-1.9-.8-3.7-1.7-5.5-2.5m139 104.7c1.6 1.9 3.1 3.8 4.7 5.7-1.6-1.9-3.2-3.8-4.7-5.7m-131-101c2.2 1 4.4 2.1 6.6 3.2-2.2-1.1-4.4-2.2-6.6-3.2" fill="#1e9baf"/>
    <path d="M863.3 356.7c-.8-1.8-1.7-3.7-2.5-5.5-.4-.8-.8-1.7-1.2-2.5-1-2.2-2.1-4.4-3.2-6.6-.2-.4-.4-.7-.5-1.1-12.3-24.8-27.3-48-44.5-69.3-.1-.1-.2-.3-.3-.4-1.5-1.9-3.1-3.8-4.7-5.7-.7-.8-1.3-1.6-2-2.4-1-1.2-2.1-2.5-3.2-3.7-1.2-1.4-2.5-2.8-3.8-4.3-.6-.6-1.1-1.2-1.7-1.8-1.8-1.9-3.5-3.8-5.3-5.7l-.5-.5c-2.1-2.2-4.2-4.4-6.4-6.5s-4.3-4.3-6.5-6.4l-.5-.5c-1.9-1.8-3.8-3.6-5.7-5.3-.6-.6-1.2-1.1-1.8-1.7-1.4-1.3-2.8-2.5-4.3-3.8-1.2-1.1-2.4-2.1-3.7-3.2-.8-.7-1.6-1.4-2.4-2-1.9-1.6-3.8-3.1-5.7-4.7-.1-.1-.3-.2-.4-.3-21.4-17.2-44.6-32.1-69.3-44.4-.4-.2-.7-.4-1.1-.5-2.2-1.1-4.4-2.2-6.6-3.2-.8-.4-1.7-.8-2.5-1.2-1.8-.8-3.7-1.7-5.5-2.5l-3.3-1.5c-21.9-9.5-44.9-17-68.8-22.2L553.7 325c72.5 16 129.6 73.1 145.6 145.5L887 428.7c-5.3-23.7-12.7-46.6-22.2-68.5-.6-1.3-1-2.4-1.5-3.5" fill="#1e9baf"/>
    <path d="m664 159.3 3.3 1.5c1.8.8 3.7 1.7 5.5 2.5.8.4 1.7.8 2.5 1.2 2.2 1 4.4 2.1 6.6 3.2.4.2.7.4 1.1.5 24.7 12.3 47.9 27.2 69.3 44.4.1.1.3.2.4.3 1.9 1.5 3.8 3.1 5.7 4.7.8.7 1.6 1.3 2.4 2 1.2 1 2.5 2.1 3.7 3.2 1.4 1.2 2.8 2.5 4.3 3.8.6.6 1.2 1.1 1.8 1.7 1.9 1.8 3.8 3.5 5.7 5.3l.5.5q6.6 6.3 12.9 12.9l.5.5c1.8 1.9 3.6 3.8 5.3 5.7.6.6 1.1 1.2 1.7 1.8 1.3 1.4 2.5 2.8 3.8 4.3 1.1 1.2 2.1 2.4 3.2 3.7.7.8 1.4 1.6 2 2.4 1.6 1.9 3.1 3.8 4.7 5.7.1.1.2.3.3.4 17.3 21.5 32.2 44.7 44.5 69.3.2.4.4.7.5 1.1 1.1 2.2 2.2 4.4 3.2 6.6.4.8.8 1.7 1.2 2.5.8 1.8 1.7 3.7 2.5 5.5l1.5 3.3c.4.9.8 1.7 1.1 2.6 9.1 21.4 16.1 43.4 21.1 65.9l62.4-13.9C911.8 245.3 778.5 112 609.1 74.6L595.3 137c22.6 5 44.7 12 66.2 21.1.8.4 1.7.8 2.5 1.2" fill="#58c0d0"/>
    <path d="m664 159.3 3.3 1.5c-1.1-.6-2.2-1-3.3-1.5m94.6 58.3c.8.7 1.6 1.3 2.4 2-.8-.6-1.6-1.3-2.4-2m-85.7-54.4c.8.4 1.7.8 2.5 1.2-.9-.4-1.7-.8-2.5-1.2m138.2 107.9c.1.1.2.3.3.4-.1-.1-.2-.3-.3-.4m-58.6-58.5c.1.1.3.2.4.3-.1-.1-.3-.2-.4-.3m-70.5-45c.4.2.7.4 1.1.5-.3-.1-.7-.3-1.1-.5m177.6 181c.4.8.8 1.7 1.2 2.5-.4-.8-.8-1.6-1.2-2.5M804.3 263c.7.8 1.4 1.6 2 2.4-.6-.8-1.3-1.6-2-2.4m59 93.7 1.5 3.3c-.6-1.1-1-2.2-1.5-3.3m-7.4-15.8c.2.4.4.7.5 1.1-.2-.4-.4-.8-.5-1.1m-65.5-93.4c1.8 1.9 3.6 3.8 5.3 5.7-1.7-1.9-3.5-3.8-5.3-5.7m-25.7-24.7c1.4 1.2 2.8 2.5 4.3 3.8-1.5-1.3-2.9-2.5-4.3-3.8m25.2 24.2q-6.3-6.6-12.9-12.9c2.2 2.1 4.4 4.2 6.5 6.4s4.3 4.3 6.4 6.5m-19.1-18.7c1.9 1.8 3.8 3.5 5.7 5.3-1.9-1.8-3.8-3.6-5.7-5.3m26.6 26.8c1.3 1.4 2.5 2.8 3.8 4.3-1.3-1.5-2.5-2.9-3.8-4.3" fill="#1e9baf"/>
  </g>
</svg>
